<?xml version="1.0" encoding="utf-8"?>
<!-- Generator: Adobe Illustrator 18.1.1, SVG Export Plug-In . SVG Version: 6.00 Build 0)  -->
<svg version="1.1" id="DE_Download_on_the" xmlns="http://www.w3.org/2000/svg" xmlns:xlink="http://www.w3.org/1999/xlink" x="0px"
	 y="0px" viewBox="57.8 10.6 109.4 30.6" enable-background="new 57.8 10.6 109.4 30.6" xml:space="preserve">
<g>
	<g>
		<g>
			<path fill="#FFFFFF" d="M134.3,34.1l-0.9,0.8c-0.2,0.1-0.4,0.2-0.6,0.3c-0.6,0.3-1.3,0.4-1.8,0.4c-0.6,0-1.5,0-2.5-0.7
				c-1.3-0.9-1.9-2.5-1.9-3.9c0-2.9,2.4-4.3,4.3-4.3c0.7,0,1.4,0.2,1.9,0.5c0.9,0.6,1.2,1.4,1.3,1.9l-4.4,1.8l-1.4,0.1
				c0.5,2.4,2.1,3.8,3.9,3.8C133,34.7,133.6,34.4,134.3,34.1C134.2,34.1,134.4,34,134.3,34.1z M131.6,29.4c0.4-0.1,0.5-0.2,0.5-0.5
				c0-0.7-0.8-1.6-1.9-1.6c-0.7,0-2.1,0.6-2.1,2.6c0,0.3,0,0.7,0.1,1L131.6,29.4z"/>
			<path fill="#FFFFFF" d="M125.1,33.9c0,0.7,0.1,0.8,0.7,0.9c0.3,0,0.6,0.1,1,0.1l-0.7,0.4h-3.3c0.4-0.6,0.5-0.6,0.5-1v-0.4l0-11.1
				h-1.5l1.4-0.7h2.7c-0.6,0.3-0.8,0.5-0.8,1.2L125.1,33.9z"/>
			<path fill="#FFFFFF" d="M120,27.5c0.4,0.4,1.3,1.1,1.3,2.5c0,1.4-0.8,2-1.6,2.7c-0.2,0.2-0.5,0.5-0.5,0.9c0,0.4,0.3,0.6,0.5,0.8
				l0.7,0.5c0.8,0.7,1.6,1.3,1.6,2.6c0,1.8-1.7,3.5-4.9,3.5c-2.7,0-4-1.3-4-2.7c0-0.7,0.3-1.6,1.4-2.3c1.2-0.7,2.7-0.8,3.6-0.9
				c-0.3-0.3-0.6-0.7-0.6-1.3c0-0.3,0.1-0.5,0.2-0.7c-0.2,0-0.4,0-0.6,0c-2,0-3.1-1.5-3.1-2.9c0-0.9,0.4-1.8,1.2-2.5
				c1.1-0.9,2.3-1,3.3-1h3.9l-1.2,0.7H120z M118.6,35.8c-0.2,0-0.2,0-0.4,0c-0.2,0-1.2,0-2,0.3c-0.4,0.2-1.6,0.6-1.6,1.9
				c0,1.3,1.3,2.3,3.3,2.3c1.8,0,2.7-0.9,2.7-2C120.7,37.4,120.1,36.9,118.6,35.8z M119.2,32.3c0.4-0.4,0.5-1,0.5-1.4
				c0-1.3-0.8-3.4-2.4-3.4c-0.5,0-1,0.2-1.3,0.6c-0.3,0.4-0.4,0.9-0.4,1.4c0,1.3,0.7,3.3,2.3,3.3C118.4,32.8,118.9,32.6,119.2,32.3z
				"/>
			<path fill="#FFFFFF" d="M108.4,35.6c-3,0-4.6-2.3-4.6-4.4c0-2.4,2-4.5,4.8-4.5c2.7,0,4.5,2.2,4.5,4.4
				C113.1,33.2,111.4,35.6,108.4,35.6z M110.7,34.1c0.5-0.6,0.6-1.3,0.6-2.1c0-1.6-0.8-4.8-3.1-4.8c-0.6,0-1.2,0.2-1.7,0.6
				c-0.7,0.7-0.9,1.5-0.9,2.3c0,1.8,0.9,4.9,3.2,4.9C109.5,35,110.3,34.7,110.7,34.1z"/>
			<path fill="#FFFFFF" d="M98.4,35.6c-3,0-4.6-2.3-4.6-4.4c0-2.4,2-4.5,4.8-4.5c2.7,0,4.5,2.2,4.5,4.4
				C103.2,33.2,101.5,35.6,98.4,35.6z M100.8,34.1c0.4-0.6,0.6-1.3,0.6-2.1c0-1.6-0.8-4.8-3.1-4.8c-0.6,0-1.2,0.2-1.7,0.6
				c-0.7,0.7-0.9,1.5-0.9,2.3c0,1.8,0.9,4.9,3.2,4.9C99.6,35,100.3,34.7,100.8,34.1z"/>
			<path fill="#FFFFFF" d="M92.7,34.9l-2.5,0.6c-1,0.2-1.9,0.3-2.9,0.3c-4.8,0-6.7-3.6-6.7-6.3c0-3.4,2.6-6.6,7.1-6.6
				c0.9,0,1.9,0.1,2.7,0.4c1.3,0.4,1.9,0.8,2.3,1.1l-1.5,1.4l-0.6,0.1l0.4-0.7c-0.6-0.6-1.7-1.6-3.8-1.6c-2.8,0-4.9,2.1-4.9,5.2
				c0,3.3,2.4,6.4,6.2,6.4c1.1,0,1.7-0.2,2.2-0.4v-2.8L88.2,32l1.4-0.8h3.7l-0.5,0.4c-0.1,0.1-0.1,0.1-0.2,0.3c0,0.2,0,0.7,0,0.8
				V34.9z"/>
		</g>
		<g>
			<path fill="#FFFFFF" d="M139.7,34.2v4.8h-0.9V26.8h0.9v1.4c0.6-0.9,1.7-1.6,3.1-1.6c2.3,0,3.9,1.8,3.9,4.6c0,2.8-1.6,4.6-3.9,4.6
				C141.5,35.8,140.4,35.2,139.7,34.2z M145.6,31.2c0-2.1-1.1-3.7-3.1-3.7c-1.2,0-2.4,1-2.9,1.8v3.9c0.5,0.8,1.7,1.8,2.9,1.8
				C144.5,34.9,145.6,33.3,145.6,31.2z"/>
			<path fill="#FFFFFF" d="M147.9,35.6V23.5h0.9v12.1H147.9z"/>
			<path fill="#FFFFFF" d="M159.5,38.1c0.2,0.1,0.5,0.1,0.8,0.1c0.6,0,1-0.2,1.3-1.1l0.7-1.6l-3.7-8.8h1.1l3.2,7.7l3.2-7.7h1.1
				l-4.5,10.7c-0.5,1.1-1.2,1.6-2.2,1.6c-0.3,0-0.7-0.1-0.9-0.1L159.5,38.1z"/>
			<path fill="#FFFFFF" d="M156.7,35.6c-0.1-0.3-0.1-0.6-0.1-0.8c0-0.2,0-0.5,0-0.7c-0.3,0.5-0.8,0.9-1.4,1.2
				c-0.6,0.3-1.1,0.5-1.9,0.5c-0.9,0-1.6-0.2-2.1-0.7c-0.5-0.5-0.8-1.1-0.8-1.9c0-0.8,0.4-1.4,1.1-1.9c0.7-0.5,1.7-0.7,2.9-0.7h2.2
				v-1.1c0-0.6-0.2-1.1-0.6-1.5c-0.4-0.4-1-0.5-1.8-0.5c-0.7,0-1.3,0.2-1.7,0.5c-0.4,0.3-0.7,0.7-0.7,1.2h-1l0,0
				c0-0.7,0.3-1.2,0.9-1.7c0.6-0.5,1.5-0.8,2.5-0.8c1,0,1.9,0.2,2.5,0.7c0.6,0.5,0.9,1.2,0.9,2.1v4.3c0,0.3,0,0.6,0.1,0.9
				c0,0.3,0.1,0.6,0.2,0.9H156.7z M153.4,34.9c0.8,0,1.4-0.2,2-0.5c0.6-0.4,1-0.8,1.2-1.4v-1.7h-2.2c-0.8,0-1.5,0.2-2.1,0.6
				c-0.6,0.4-0.8,0.8-0.8,1.4c0,0.5,0.2,0.9,0.5,1.2C152.3,34.7,152.8,34.9,153.4,34.9z"/>
		</g>
	</g>
	<g>
		<polygon fill="none" points="68.2,30.7 71.3,27.7 71.3,27.7 68.2,30.7 58.6,21 58.6,21 68.2,30.7 58.5,40.4 58.5,40.4 68.2,30.7 
			71.3,33.7 71.3,33.7 		"/>
		
			<linearGradient id="SVGID_1_" gradientUnits="userSpaceOnUse" x1="545.451" y1="-480.8561" x2="532.6614" y2="-488.8604" gradientTransform="matrix(0.7071 0.7071 -0.7071 0.7071 -659.5017 -15.763)">
			<stop  offset="0" style="stop-color:#D6FFA1"/>
			<stop  offset="0.3264" style="stop-color:#93E2A7"/>
			<stop  offset="1" style="stop-color:#00A3B5"/>
		</linearGradient>
		<path fill="url(#SVGID_1_)" d="M71.3,27.7l-11.8-6.5c-0.3-0.2-0.6-0.2-0.9-0.1l9.7,9.7L71.3,27.7z"/>
		
			<linearGradient id="SVGID_2_" gradientUnits="userSpaceOnUse" x1="538.0149" y1="-487.6937" x2="554.5972" y2="-483.3589" gradientTransform="matrix(0.7071 0.7071 -0.7071 0.7071 -659.5017 -15.763)">
			<stop  offset="0" style="stop-color:#FF177B"/>
			<stop  offset="0.6721" style="stop-color:#FFA976"/>
			<stop  offset="1" style="stop-color:#FFEC73"/>
		</linearGradient>
		<path fill="url(#SVGID_2_)" d="M71.3,33.7l4-2.2c0.8-0.5,0.8-1.2,0-1.6l-4.1-2.2l-3,3L71.3,33.7z"/>
		
			<linearGradient id="SVGID_3_" gradientUnits="userSpaceOnUse" x1="547.272" y1="-474.7847" x2="529.2906" y2="-485.3639" gradientTransform="matrix(0.7071 0.7071 -0.7071 0.7071 -659.5017 -15.763)">
			<stop  offset="0" style="stop-color:#63FFD4"/>
			<stop  offset="0.4854" style="stop-color:#32A0BA"/>
			<stop  offset="0.8349" style="stop-color:#1262A9"/>
			<stop  offset="1" style="stop-color:#064AA2"/>
		</linearGradient>
		<path fill="url(#SVGID_3_)" d="M58.6,21c-0.4,0.1-0.6,0.5-0.6,1l0,17.3c0,0.5,0.2,0.9,0.6,1l9.7-9.7L58.6,21z"/>
		
			<linearGradient id="SVGID_4_" gradientUnits="userSpaceOnUse" x1="553.8004" y1="-483.1844" x2="542.7288" y2="-468.5981" gradientTransform="matrix(0.7071 0.7071 -0.7071 0.7071 -659.5017 -15.763)">
			<stop  offset="0" style="stop-color:#FF4521"/>
			<stop  offset="0.3411" style="stop-color:#D43E65"/>
			<stop  offset="0.7935" style="stop-color:#9F36B9"/>
			<stop  offset="1" style="stop-color:#8A33DB"/>
		</linearGradient>
		<path fill="url(#SVGID_4_)" d="M58.5,40.4c0.3,0.1,0.6,0,0.9-0.1l11.8-6.5l-3-3L58.5,40.4z"/>
	</g>
	<g>
		<g>
			<path fill="#FFFFFF" d="M81.1,15.9l0.5-0.8c0.2,0.3,0.6,0.5,1,0.5c0.6,0,1-0.4,1-1.1v-4h1v4c0,1.3-0.9,2-2,2
				C82.1,16.6,81.6,16.4,81.1,15.9z"/>
			<path fill="#FFFFFF" d="M86.2,16.5v-5.9h4.1v0.9h-3V13h3v0.9h-3v1.7h3v0.9H86.2z"/>
			<path fill="#FFFFFF" d="M93,16.5v-5h-1.8v-0.9h4.6v0.9H94v5H93z"/>
			<path fill="#FFFFFF" d="M96.7,16.5v-0.8l3-4.2h-3v-0.9h4.4v0.8l-3,4.2h3.1v0.9H96.7z"/>
			<path fill="#FFFFFF" d="M103.7,16.5v-5h-1.8v-0.9h4.6v0.9h-1.8v5H103.7z"/>
			<path fill="#FFFFFF" d="M110.2,16.5v-5.9h2.9c1.1,0,1.7,0.7,1.7,1.5c0,0.7-0.5,1.2-1,1.4c0.6,0.1,1.1,0.7,1.1,1.4
				c0,0.9-0.6,1.6-1.7,1.6H110.2z M113.7,12.2c0-0.4-0.3-0.8-0.8-0.8h-1.7V13h1.7C113.4,13,113.7,12.7,113.7,12.2z M113.8,14.7
				c0-0.4-0.3-0.8-0.9-0.8h-1.7v1.7h1.7C113.5,15.6,113.8,15.2,113.8,14.7z"/>
			<path fill="#FFFFFF" d="M116.2,16.5v-5.9h4.1v0.9h-3V13h3v0.9h-3v1.7h3v0.9H116.2z"/>
			<path fill="#FFFFFF" d="M121.5,16.5v-5.9h1v5.9H121.5z"/>
		</g>
	</g>
</g>
</svg>
